<?xml version="1.0" encoding="UTF-8"?>
<!-- Generator: Adobe Illustrator 27.9.0, SVG Export Plug-In . SVG Version: 6.00 Build 0)  -->
<svg xmlns="http://www.w3.org/2000/svg" xmlns:xlink="http://www.w3.org/1999/xlink" version="1.1" id="Layer_1" x="0px" y="0px" viewBox="0 0 418.52 532.46" style="enable-background:new 0 0 418.52 532.46;" xml:space="preserve">
<style type="text/css">
	.st0{fill-rule:evenodd;clip-rule:evenodd;fill:#1D8D55;}
	.st1{fill-rule:evenodd;clip-rule:evenodd;fill:#FAE600;}
	.st2{fill:#FFFFFF;}
	.st3{fill:#1D8D55;}
</style>
<g>
	<g>
		<path class="st0" d="M297.51,32.13c-0.38,6.46,6.83,13.62,10,15.81c7.15,4.94,13.66,2.35,17.37,9.42    c-8.92-3.09-22.94-3.08-29.5,2.95c11.67,13.26,22.17,6.54,36.25,4.99L348.28,86c-6.4-2.47-7.37-5.99-17.1-6.13l-14.8,2.79    c-1.79,0.76-0.85,0.38-2.22,1.11c-0.16,0.09-0.59,0.66-0.71,0.44c-0.12-0.21-0.48,0.3-0.7,0.46c7.56,10.79,24.42,9.19,39.58,6.74    c3.64,3.53,10.48,15.67,13.33,21.68c-14.06-3.46-11.44-12.59-35.15-9.68c1.24,4.43,3.97,6.82,6.74,9.06    c9.34,7.56,19.43,9.43,31.79,7.64c2.78,4.21,8.18,17.81,9.39,23.55c-10.6-9.41-20.83-17.04-36.16-16.89    c3.8,17.46,22.3,22.58,37.81,21.45l4.63,23.09c-8.87-6.05-17.96-21.29-34.38-19.15c1.57,6.8,8.29,14.73,12.27,17.61    c7.21,5.22,19.2,5.6,22.17,7.57c2.82,4.92,1.46,19.39,1.42,25.98c-5.57-2.69-11-25.48-31.82-27.54    c3.71,26.85,23.6,27.75,30.95,31.76c-0.28,4.88-1.06,9.36-1.9,14.22c-0.72,4.15-0.9,9.21-3.71,12.09    c-5.06-14.48-10.03-27.7-24.19-30.61c0.97,28.68,15.14,28.75,23.3,35.01c-2.08,6.71-7.61,23.59-11.76,27.33    c-1.92-17.06-0.26-30.54-13.72-36.86c-6.22,18.68-0.79,28.73,12.1,40.24c-1.72,5.52-12.01,20.54-14.98,22.95    c0.43-9.32,5.15-31.16-7.04-36.78c-8.07,17-7.4,28.37,3.66,41.36c-5.26,6.88-10.01,12.17-15.32,17.3    c-1.34-11.79,7.83-22.36-3.8-35.2l-1.05,1.04c-4.31,4.92-6.34,12.44-6.63,18.95c-0.57,12.63,3.92,13.85,6.08,21.76    c-7.53,4.73-14.98,12.64-23.18,16.8l4.83-6.63c1.39-2.14,2.27-4.92,2.78-7.82c1.24-6.94-0.23-13.76-0.7-20.45    c-15.49,4.01-15.07,22.86-13.92,40.07c-7.96,4.13-15.31,8.09-24.01,11.88c2.33-4.4,8.31-5.76,11.47-13.07    c2.79-6.45,3.28-14.67,3.11-22.46c-17.52,3.61-18.3,19.11-20.64,37.92c-5.79,2.32-17.91,7.58-24.72,6.96L240,363.1    c15.96-4.9,19.54-16.14,22.19-31.18c-21.55,2.63-21.7,16.32-29.97,33.92c-4.49,0.63-20.68,2.67-23.78,2.51    c-5-0.27-18.89-1.16-22.16-3.21c-7.09-6.36-4.85-31.55-30.13-33.07c3.38,17.76,7.52,25.48,22.19,31.33    c-4.17,1.9-21.23-4.83-26.13-6.56c-2.33-18.69-3.35-34.23-20.62-38.23c-0.41,9.85,0.48,22.87,8.03,29.57    c2.32,2.06,6.72,3.37,6.36,6.4l-23.48-12.56c-0.71-9.57,4.28-35.22-14.33-40.02c-0.41,7.62-2.14,13.84-0.32,21.83    c1.25,5.49,6.46,10.09,6.95,13.35c-3.28-2.11-9.47-6.02-12.02-8.31l-10.67-9.24c3.24-6.7,6.4-10.52,5.91-21    c-0.34-7.31-3.02-15.55-7.29-20.03l-4.85,6.86c-0.95,2.59-1.35,5.86-1.44,8.95c-0.23,7.77,1.62,12.04,2.47,19.17    c-4.05-2-5.66-4.35-8.48-7.99c-2.23-2.87-5.03-5.63-7.13-9.11c3.61-5.44,8.24-10.07,8.87-20.14c0.43-6.87-0.76-17.44-6.85-21.26    c-9.57,11.93-6.3,20.81-5.29,36.76c-2.73-1.41-13.8-18.79-15.07-22.9c5.15-5.57,9.33-6.7,12.7-16.65    c2.34-6.93,3.28-18.07-1.41-23.41c-11.25,5.18-11.88,20.76-12.79,36.78c-4.49-4.54-9.84-19.63-11.87-27.43    c7.11-5.12,23.67-8.63,23.22-35.07c-21.73,5.14-18.79,26.22-25.46,30.5l-4.23-26.14c3.62-1.91,7.75-1.97,12.06-4.17    c3.89-1.99,6.44-4.37,8.98-6.98c4.96-5.08,8.58-11.48,9.91-20.45c-8.22,0.18-15.77,6.43-19.18,10.13    c-3.52,3.82-9.43,15.3-12.71,17.33c-0.16-7.38-1.86-20.77,1.63-26.37c3.95-3.31,26.31,0.94,34.45-25.33    c-10.1,0.27-14.52,1.85-20.69,7.37c-3.94,3.53-10.59,10.92-14.24,12.3l5.22-23.11c9.2,0.7,17.92-0.46,24.75-5.22    c4.55-3.17,11.33-8.86,12.87-16.18c-22.97-0.74-24.23,11.18-36.67,16.85l8.84-23.31c10.73-0.06,15.12,2.67,25.44-2.88    c5.15-2.77,12.49-8.59,13.98-13.89c-20.26-2.9-20.78,3.75-35.02,9.7c1.94-5.7,10.27-18.17,13.63-21.8    c17.09,2.63,28.59,5.57,39.2-6.84c-3.8-3.3-11.91-4.83-18.06-4.8c-7.55,0.05-12.22,3.49-17.25,6.07    c4.44-7.47,11.79-15.27,17.79-20.68c8.71,2.2,19.05,5.09,28.24,0.51c3.28-1.63,5.54-3.15,6.78-5.47    c-7.21-5.71-19.38-5.92-26.71-3.99c1.13-1.21,0.89-1.17,1.95-1.97c7.11-5.36,20.03,1.54,28.19-18.15    c-8.33,0.74-14.68,1.59-19.82,6.17c-1.02,0.91-12.05,15.25-12.5,11.87c-0.04-0.33-0.26-0.53-0.46-0.76    c5.95-5.19,8.29-15.09,6.54-24.88c-8.82,5.49-17.22,10.58-18.62,25.56c-1.11,11.9,0.08,8.66-6.94,15.58    c-4.25,4.18-5.92,9.09-10.53,11.93c3.85-16,4.8-17.13-1.64-31.02c-4.41,1.86-0.93-0.47-3.82,3.13    c-7.05,8.78-11.1,19.82-7.51,31.19c3.32,10.54,5.99,8.34,0.03,17.42c-3.41,5.2-5.87,10.96-9.07,15.17    c1.35-6.99,3.64-17.05,2.19-24.35c-0.67-3.35-2.19-6.38-3.87-9.07l-5.88-7.23c-7.79,9.59-9.45,27.63-4.39,39.66    c2.27,5.4,8.07,11.19,6.31,16.59c-1.26,3.89-4.51,15.87-6.24,18.27c-0.71-12.52,0.81-26.68-13.68-31.77    c-5.29,11.28-3.91,26.59,2.51,34.51c11.74,14.48,9,3.83,6.64,31.93c-6.57-11.78-0.29-19.84-19.16-26.52    c-0.36,16.63,1.9,26.91,11.48,33.77c7.07,5.07,7.24,3.02,8.15,14.16c0.38,4.69,3.24,13.68,2.02,16.58    c-6.15-10.14-7.74-27.32-28.23-27.99c3.07,14.98,5.47,22.56,15.39,28.56c16.76,10.13,14.73,2.1,20.55,24.56    c-1.53-1.12-0.61-0.43-1.96-1.73c-0.18-0.18-1.31-1.37-1.63-1.73c-1.2-1.34-1.3-1.57-2.4-2.86c-6.48-7.6-13.66-10.24-24.75-11.7    c6.17,30.77,34.42,30.64,38.66,35.87c0.36,0.44,8.61,15.08,8.7,15.31c-9.97-7.54-16.17-19.37-38.14-16.75    c1.9,6.29,11.98,17.01,17.16,20.1c13.34,7.95,17.65,4.13,29.02,7.98c2.06,2.23,1.53,2.55,3.32,5.22l10.41,12.95    c-11.12-9.88-27.86-19.71-42.98-13.6c3.94,10.06,15.28,18.5,29.57,21.69c6.2,1.39,20.82,0.29,23.78,1.58l12.82,11.91    C87,329.52,67.1,322.68,56.3,333.28c2.2,2.43,10.09,7.7,14.37,9.79c6.53,3.19,11.84,4.72,20.07,4.37    c20.06-0.85,16.9-10.15,34.45,4.68c-22.49-2.31-19.34-1.41-35.89,6.31l3.52,3.84c9.08,6.08,21.98,5.04,31.69,1.97    c4.48-1.42,12.35-5.88,16.57-4.95c0.66,0.15,14.6,6.47,14.93,6.69c-7.57,0.4-12.42-0.2-19.02,3.26    c-7.71,4.04-6.1,6.21-10.68,10.43c9.81,6.54,25.72,3.63,33.72-2.19c5.43-3.95,5.66-8.96,13.54-7.3c6.09,1.28,11.63,2.73,18.14,3.3    c-3.79,4.05-8.8,6.37-13.25,9.7c-5.45,4.07-10,4.13-8.97,11.46c5.93,4.62,8.22,0.73,13.08-3.08c2.55-2,4.04-2.52,6.33-4.25    c31.28-23.69,44.96,9.71,55.44,9.52c2.54-0.05,4.51-1.91,4.73-4.05c0.54-5.17-15.34-13.49-19.68-16.91l-2.03-1.79    c-0.13-0.43-0.48-0.43-0.62-0.29l22.82-4.24c11.22,11.55,20.27,17.05,42.47,10.96c-1.27-3.95-7.27-9.64-11.15-11.57    c-6.76-3.35-11.75-2.15-19.02-3.13c4.42-1.46,10.84-4.89,14.88-6.24c10.76-3.59,23.7,17.14,52.18,0.6    c-5.04-9.86-23.61-9.96-35.79-7.84c1.94-2.08,11.73-8.91,14.58-8.98c12.76-0.32,22.15,12.58,48.14-5.16    c3.46-2.36,4.77-2.99,6.4-6.24c-25.92-7.19-16.61-5.77-41.79,1.77c3.77-4.68,10.12-9.13,14.89-13.08    c24.98,3.36,44.32-7.27,51.52-21.93c-11.44-7.7-24.77,1.53-34.47,7.4c-3.7,2.23-4.84,4.01-8.4,5.78c1.33-2.52,3.7-4.7,5.87-7.25    c6.76-7.94,3.55-11.12,15.34-12.14c16.97-1.47,32.31-10.92,38.64-26.58c-7.73-1.93-18.19,0.33-23.63,4.48    c-2.98,2.28-5.16,3.65-7.96,5.83c-2.1,1.64-5.2,5.19-6.53,5.86c2.97-3.35,6.04-11.7,9-15.09c2.97-3.4,12.05-4.95,16.88-7.44    c11.73-6.04,18.47-14.83,21.46-28.22c-8.22,0.66-13.65,2.01-19.23,6.04c-4.34,3.14-7.81,9.49-11.67,12.49    c6.55-23.02,2.8-13.81,20.23-25.03c12.26-7.89,10.75-12.71,16.1-28.53c-16.94-1.51-23.06,15.89-28.61,27.8l2.7-25.32    c17.65-10.81,19.04-19.42,19.22-39.18c-18.16,4.67-13.36,16.28-19.17,26.59c-0.51-4.63-1.92-15.35-1.96-19.39    c-0.04-3.73,5.7-9.87,7.93-12.52c9.52-11.29,6.47-20.37,3.66-34.96c-13.29,4.63-13.97,15-14.05,32.04    c-0.81-1.01-5.96-15.98-6.68-18.74c-1.11-4.28,0.6-4.62,2.79-8.51c1.67-2.97,2.88-5.42,4.19-8.53c4-9.47,3.64-26.47-2.68-35.79    c-2.13-3.14,0.29-1.24-3.56-3.24c-2.46,5.55-7.76,10.46-8.56,18.87c-0.8,8.35,2.11,15.75,2.31,22.44    c-0.66-1.94-6.51-12.02-8.21-14.78c-6.3-10.24-4.96-5.45-0.78-17.6c2.49-7.22,1.61-14.44-0.96-20.9    c-2.35-5.91-5.86-11.34-9.55-13.69c-7.5,9.72-5.84,18.26-2.41,30.65c-3.08-1.73-7.96-9.45-10.5-12.58    c-7.07-8.72-5.44-1.27-6.91-15.01c-0.96-9.07-11.02-25.01-18.68-24.82c-1.13,6.67-0.46,12.65,2.47,18.35    c1.22,2.38-0.24-0.48,1.18,2.2c0.14,0.27-0.01,3.51,0.84,1.61c0.08-0.17,0.29,0.55,0.43,0.83c-2.57-1.59-0.4,0.18-2-1.64    c-3.5-3.97-2.96-7.18-8.41-11.85C309.07,35.65,302.94,32.62,297.51,32.13z"></path>
	</g>
	<g>
		<path class="st0" d="M249.04,433.74c13.43,1.65,28.05,8.84,32.23,17.47c-9.93,2.46-23.5-5.63-29.36-12.91    C249.88,435.77,250.23,435.46,249.04,433.74L249.04,433.74z M134.87,451.38c2.38-7.94,19.09-15.98,31.44-17.68    c-2.92,7.46-5.92,8.52-12.45,12.69C147.76,450.29,142.83,452.46,134.87,451.38L134.87,451.38z M391.5,376.2    c-19.99,5.48-17.7-6.13-8.18-9.45c4.56-1.59,11.03-1.74,13.98,1.32c3.77,3.91-0.01,8.82-1.59,12.18    C392,378.6,394.75,379.15,391.5,376.2L391.5,376.2z M19.3,380.51c-1.4-3.22-5.3-8.43-1.02-12.38c7.8-7.19,24.41,2.19,18.91,8.21    c-3.3,3.62-10.44,0.52-14.43-0.34C20.76,380.28,21.17,379.26,19.3,380.51L19.3,380.51z M285.32,429.54    c33.42-13.14,99.84-1.87,119.09-23.79c4.02-4.58,3.21-5.76,1.94-11.79c-1.03-4.87-4-23.05-5.74-26    c-3.84-6.5-16.92-6.73-23.26-0.89c-7.92,7.3,0.18,13.24,2.03,21.15c-27.54,5.76-69.37,1.47-107.49,19.53    c-12.69,6.01-4.03,4.07-18.36,1.13c-14.48-2.98-31.17-3.41-46.31-3.29c-14.23,0.12-34.01,0.27-47.52,3.18    c-13.51,2.91-5.35,3.9-17.59-1.69c-30.4-13.87-72.84-14.45-106.25-18.72c1.56-8.38,11.06-16.79,0.46-22.66    c-8.56-4.75-19.11-3.15-22.56,4.34c-1.78,3.86-4.57,20.88-5.64,26.07c-6.5,31.43,94.29,21.06,123.41,34.15    c0.17,8.39-6.5,37.22,23.51,18.48c13.87-8.66,8.61-6.97,15.11-15.1l75.19,0.21c7.11,10.39,25.27,27.25,39.05,17.96L285.32,429.54z    "></path>
	</g>
	<g>
		<path class="st0" d="M220.49,288.02c6.51-4.98,17.7-9.54,14.05-21.88c-6.32-21.34-40.79-20.06-46.33-0.2    c-3.64,13.06,6.93,16.95,13.52,22.08l0.1,18.28c-3-1.52-7.57-5.41-10.67-7.54c-10.55-7.23-22.05-14.29-35.27-15.64    c0.29-17.55,0.88-38.23,0.14-55.56c-0.28-6.47-6.98-11.99-10.39-16.7c-2.27-3.13-9.76-12.59-12.88-14.22l0.07,99.91    c61.08,7.1,63.96,39.71,69.09,46.72l17.15-0.07c6.68-31.27,43.77-41.53,71.12-44.64l0.2-102.24c-3.74,1.52-3.32,2.42-7.38,7.55    c-2.13,2.69-3.99,5.02-6,7.79c-3.39,4.69-10.36,11.01-11.11,16.06c-1.95,13.05,0.39,40.24-0.15,55.31    c-12.44,4.07-25.48,8.34-36.38,15.44c-5.7,3.71-4.89,2.04-8.91,7.05L220.49,288.02z"></path>
	</g>
	<g>
		<path class="st1" d="M174.82,188.46c3.89,16.81,18.66,30.16,40.69,28.19c47.78-4.27,40.43-71.87-8.84-65.61    C186.98,153.55,171.06,172.21,174.82,188.46z"></path>
	</g>
	<g>
		<path class="st0" d="M174.82,188.46c-3.76-16.25,12.16-34.91,31.86-37.42c49.27-6.26,56.61,61.34,8.84,65.61    C193.48,218.62,178.71,205.27,174.82,188.46L174.82,188.46z M205.12,143.77l-9.52,2.19c-2.64-2.96-4.03-5.51-5.48-8.06    l-11.39,5.91c1.62,3.4,3.48,5.18,4.83,8.48l-7.01,6.09l-8.52-4.35l-7.07,9.96l8.94,5.24l-2.65,8.61l-10.58,0.04l-0.06,11.66    l10.32,0.33l3.06,8.07l-9.03,5.43l6.72,10.46l8.76-4.58c3.03,2.3,4.41,3.83,7.16,5.81l-4.92,8.23l11.56,6.62l5.24-8.45l9.47,2.34    l0.44,9.59l12.84,0.05l0.41-8.95l9.72-3.06l5.16,8.21l11.62-5.9c-2.14-3.24-3.59-5.46-5.11-9.06c3.76-2.16,4.1-2.89,7.1-5.53    l8.78,4.53c3.2-3.24,5.17-7.36,6.92-10.38c-3.93-2.49-5.43-1.93-8.88-5.3l2.4-8.06l10.73-0.06l-0.14-12.12l-10.82,0.02l-2.35-8.69    l9.01-4.63l-6.83-10.29l-9.3,4.38l-6.53-5.79c1.2-3.22,3.43-5.95,4.87-8.77l-11.12-6.02l-5.56,7.91l-9.11-1.95l-0.7-9.43    l-13.34-0.23L205.12,143.77z"></path>
	</g>
	<g>
		<path class="st0" d="M180.15,39.67c3.81,20.8,38.11,30.24,55.01,11.51C254.83,29.38,237.81-1,213.71,0.03    c3.45,2.96,11.23,4.96,15.19,16.29c7.19,20.56-17.76,42.75-39.83,30.31C183.97,43.76,183.6,41.99,180.15,39.67z"></path>
	</g>
	<g>
		<path class="st1" d="M107.63,184.52c7.97,5.36,38.85,8.99,45.02-1.35c-3.57-5.48-16.13-5.63-22.74-5.58    C122.09,177.63,110.01,177.65,107.63,184.52z"></path>
	</g>
	<g>
		<path class="st1" d="M270.56,181.68c1.8,7.78,14.32,7.3,21.38,7.35c4.69,0.03,8.78-0.13,13.41-0.95c5.33-0.94,8.36-1.53,9.85-4.92    C308.38,173.36,279.54,177.3,270.56,181.68z"></path>
	</g>
	<g>
		<path class="st1" d="M121.42,136.51c0.37,11.72,35.27,26.53,38.61,20.72C163.71,150.83,128.16,131.65,121.42,136.51z"></path>
	</g>
	<g>
		<path class="st1" d="M211.46,128.73c9.96-4.71,8.25-34.93,1.4-40.73c-6.53,1.68-7.28,12.11-7.31,19.95    C205.51,116.69,206.27,124.21,211.46,128.73z"></path>
	</g>
	<g>
		<path class="st1" d="M264.21,102.84c-6.92-0.65-13.22,8.06-16.42,12.89c-1.75,2.64-10.86,17.93-6.75,21.88    C245.65,142.04,267.2,115.82,264.21,102.84z"></path>
	</g>
	<g>
		<path class="st1" d="M183.04,138.72c3.15-12.21-16.98-38.81-22.75-35.2C153.72,107.63,171.82,138.27,183.04,138.72z"></path>
	</g>
	<g>
		<path class="st1" d="M295.36,136.37c-8.93,1.85-15.79,5.42-22.42,9.8c-3.12,2.06-7.17,4.69-8.87,7.2    c-6.46,9.51,13.28,4.73,27.96-5.08C306.1,138.89,302.91,134.81,295.36,136.37z"></path>
	</g>
	<g>
		<path class="st2" d="M38.93,412.2l2.3-16.67l3.36,0.46l-1.91,13.83l8.36,1.15l-0.39,2.83L38.93,412.2z"></path>
		<path class="st2" d="M53.04,414.15l2.32-16.8l12.34,1.7l-0.39,2.84l-8.98-1.24l-0.51,3.73l8.36,1.15l-0.39,2.83l-8.36-1.15    l-0.63,4.57l9.3,1.28l-0.39,2.83L53.04,414.15z"></path>
		<path class="st2" d="M83.57,418.36l-3.66-0.5l-0.93-4.02l-6.65-0.92l-1.9,3.63l-3.57-0.49l8.8-15.91l3.55,0.49L83.57,418.36z     M78.3,410.86l-1.43-6.55l-3.11,5.92L78.3,410.86z"></path>
		<path class="st2" d="M85.36,418.61l2.32-16.8l7.07,0.98c1.78,0.25,3.05,0.58,3.82,0.99c0.76,0.41,1.34,1.04,1.71,1.88    s0.5,1.75,0.36,2.75c-0.17,1.26-0.69,2.25-1.53,2.97c-0.85,0.72-2.02,1.09-3.51,1.1c0.67,0.53,1.2,1.08,1.6,1.66    s0.91,1.57,1.54,2.99l1.58,3.56l-4.02-0.55l-1.92-3.99c-0.68-1.43-1.16-2.33-1.43-2.71s-0.58-0.66-0.91-0.84s-0.89-0.32-1.67-0.42    l-0.68-0.09l-0.97,7.01L85.36,418.61z M90.06,409.38l2.49,0.34c1.61,0.22,2.63,0.29,3.05,0.21c0.42-0.08,0.77-0.28,1.04-0.58    s0.44-0.71,0.51-1.21c0.08-0.57-0.01-1.04-0.26-1.43s-0.64-0.67-1.18-0.83c-0.27-0.08-1.08-0.21-2.44-0.4l-2.62-0.36L90.06,409.38    z"></path>
		<path class="st2" d="M102.18,420.93l2.32-16.8l3.27,0.45l5.26,12.16l1.55-11.22l3.12,0.43l-2.32,16.8l-3.37-0.46l-5.2-11.89    l-1.51,10.96L102.18,420.93z"></path>
	</g>
	<g>
		<path class="st2" d="M184.86,429.34v-16.96h7.21c1.81,0,3.13,0.15,3.95,0.46s1.48,0.85,1.97,1.63s0.74,1.67,0.74,2.67    c0,1.27-0.37,2.32-1.12,3.15s-1.87,1.35-3.36,1.57c0.74,0.43,1.35,0.91,1.83,1.42s1.13,1.43,1.95,2.75l2.07,3.31h-4.1l-2.48-3.69    c-0.88-1.32-1.48-2.15-1.8-2.49c-0.32-0.34-0.67-0.58-1.03-0.71s-0.94-0.19-1.72-0.19h-0.69v7.08H184.86z M188.29,419.56h2.53    c1.64,0,2.67-0.07,3.08-0.21c0.41-0.14,0.73-0.38,0.96-0.72c0.23-0.34,0.35-0.76,0.35-1.27c0-0.57-0.15-1.03-0.46-1.38    c-0.3-0.35-0.73-0.57-1.29-0.67c-0.28-0.04-1.11-0.06-2.5-0.06h-2.67V419.56z"></path>
		<path class="st2" d="M201.86,429.34v-16.96h3.42v16.96H201.86z"></path>
		<path class="st2" d="M207.68,423.82l3.33-0.32c0.2,1.12,0.61,1.94,1.22,2.46s1.44,0.79,2.48,0.79c1.1,0,1.93-0.23,2.49-0.7    c0.56-0.47,0.84-1.01,0.84-1.64c0-0.4-0.12-0.74-0.35-1.02c-0.24-0.28-0.65-0.53-1.23-0.74c-0.4-0.14-1.32-0.39-2.74-0.74    c-1.84-0.46-3.12-1.01-3.87-1.68c-1.04-0.93-1.56-2.07-1.56-3.41c0-0.86,0.25-1.67,0.73-2.42c0.49-0.75,1.2-1.33,2.12-1.72    c0.92-0.39,2.03-0.59,3.34-0.59c2.13,0,3.73,0.47,4.81,1.4s1.64,2.18,1.7,3.74l-3.42,0.15c-0.15-0.87-0.46-1.5-0.94-1.88    s-1.21-0.57-2.17-0.57c-1,0-1.77,0.2-2.34,0.61c-0.36,0.26-0.54,0.61-0.54,1.05c0,0.4,0.17,0.75,0.51,1.03    c0.43,0.36,1.48,0.74,3.15,1.13c1.67,0.39,2.9,0.8,3.7,1.22c0.8,0.42,1.42,1,1.88,1.72c0.45,0.73,0.68,1.63,0.68,2.7    c0,0.97-0.27,1.88-0.81,2.73c-0.54,0.85-1.3,1.48-2.29,1.89c-0.99,0.41-2.22,0.62-3.69,0.62c-2.15,0-3.79-0.5-4.94-1.49    C208.59,427.17,207.9,425.72,207.68,423.82z"></path>
		<path class="st2" d="M224.36,429.34v-16.96h12.58v2.87h-9.15v3.76h8.52v2.86h-8.52v4.62h9.48v2.86H224.36z"></path>
	</g>
	<g>
		<path class="st2" d="M301.86,415.47l3.27-0.63c0.3,1.09,0.78,1.87,1.44,2.34c0.66,0.47,1.5,0.65,2.53,0.55    c1.09-0.1,1.9-0.41,2.41-0.93c0.51-0.52,0.74-1.09,0.68-1.71c-0.04-0.4-0.19-0.73-0.45-0.99c-0.26-0.26-0.69-0.46-1.29-0.62    c-0.41-0.1-1.34-0.26-2.79-0.48c-1.86-0.28-3.19-0.72-3.99-1.31c-1.12-0.83-1.74-1.92-1.87-3.25c-0.08-0.86,0.08-1.69,0.5-2.48    c0.42-0.79,1.06-1.43,1.94-1.91c0.88-0.48,1.96-0.78,3.25-0.9c2.11-0.2,3.74,0.12,4.9,0.95c1.15,0.83,1.83,2.02,2.03,3.56    l-3.38,0.47c-0.23-0.85-0.6-1.45-1.11-1.78s-1.25-0.46-2.2-0.37c-0.99,0.09-1.74,0.37-2.26,0.83c-0.33,0.29-0.48,0.66-0.44,1.1    c0.04,0.4,0.24,0.72,0.6,0.98c0.46,0.32,1.54,0.6,3.23,0.83c1.69,0.24,2.95,0.53,3.78,0.87c0.83,0.34,1.5,0.86,2.02,1.54    s0.82,1.56,0.92,2.63c0.09,0.97-0.09,1.9-0.55,2.79c-0.46,0.9-1.15,1.59-2.09,2.1c-0.94,0.5-2.14,0.82-3.6,0.96    c-2.13,0.2-3.8-0.14-5.04-1.02C303.07,418.71,302.26,417.33,301.86,415.47z"></path>
		<path class="st2" d="M318.91,419.4l-1.59-16.89l3.4-0.32l0.63,6.65l6.65-0.63l-0.63-6.65l3.4-0.32l1.59,16.89l-3.4,0.32l-0.7-7.38    l-6.65,0.63l0.7,7.38L318.91,419.4z"></path>
		<path class="st2" d="M335.76,417.81l-1.59-16.89l3.39-0.32l1.59,16.89L335.76,417.81z"></path>
		<path class="st2" d="M342.43,417.18l-1.59-16.89l3.3-0.31l7.95,10.63l-1.06-11.28l3.15-0.3l1.59,16.89l-3.41,0.32l-7.82-10.38    l1.04,11.01L342.43,417.18z"></path>
		<path class="st2" d="M359.36,415.59l-1.59-16.89l12.47-1.18l0.27,2.86l-9.07,0.86l0.35,3.74l8.44-0.8l0.27,2.85l-8.44,0.8    l0.43,4.6l9.39-0.89l0.27,2.85L359.36,415.59z"></path>
	</g>
	<g>
		<path class="st3" d="M86.79,507.1v-48.21h9.47l19.73,32.2v-32.2h9.04v48.21h-9.77l-19.44-31.44v31.44H86.79z"></path>
		<path class="st3" d="M178.81,507.1h-10.59l-4.21-10.95h-19.27l-3.98,10.95h-10.33l18.78-48.21h10.29L178.81,507.1z M160.88,488.03    l-6.64-17.89l-6.51,17.89H160.88z"></path>
		<path class="st3" d="M191.27,507.1l-17.23-48.21h10.56l12.2,35.68l11.81-35.68h10.33l-17.27,48.21H191.27z"></path>
		<path class="st3" d="M234.75,507.1v-40.06h-14.31v-8.16h38.31v8.16h-14.27v40.06H234.75z"></path>
		<path class="st3" d="M275.89,507.1v-40.06h-14.31v-8.16h38.31v8.16h-14.27v40.06H275.89z"></path>
		<path class="st3" d="M337.03,489.38l9.44,2.99c-1.45,5.26-3.85,9.17-7.22,11.72c-3.37,2.55-7.63,3.83-12.81,3.83    c-6.4,0-11.66-2.19-15.79-6.56s-6.18-10.35-6.18-17.94c0-8.02,2.07-14.26,6.22-18.7c4.14-4.44,9.59-6.66,16.34-6.66    c5.9,0,10.69,1.74,14.37,5.23c2.19,2.06,3.84,5.02,4.93,8.88l-9.64,2.3c-0.57-2.5-1.76-4.47-3.57-5.92    c-1.81-1.45-4.01-2.17-6.59-2.17c-3.57,0-6.47,1.28-8.7,3.85c-2.23,2.57-3.34,6.72-3.34,12.46c0,6.1,1.1,10.44,3.29,13.02    s5.04,3.88,8.55,3.88c2.59,0,4.81-0.82,6.68-2.47C334.88,495.49,336.22,492.91,337.03,489.38z"></path>
	</g>
	<g>
		<polygon class="st0" points="208.9,10.12 206.85,20.26 215.68,25.35 205.6,26.49 203.58,36.64 199.4,27.21 189.32,28.39     196.82,21.41 192.61,11.99 201.42,17.12   "></polygon>
	</g>
</g>
</svg>
